<svg width="54" height="54" viewBox="0 0 54 54" fill="none" xmlns="http://www.w3.org/2000/svg">
<path d="M43.3848 15.5881C43.9634 15.5881 44.4327 15.119 44.4327 14.5402V3.14382C44.4327 1.41032 43.0224 0 41.2889 0H3.14382C1.41032 0 0 1.41032 0 3.14382V50.5108C0 52.2443 1.41032 53.6546 3.14382 53.6546H41.2889C43.0224 53.6546 44.4327 52.2443 44.4327 50.5108V42.7904C44.4327 42.2116 43.9634 41.7424 43.3848 41.7424C42.8061 41.7424 42.3368 42.2116 42.3368 42.7904V50.5108C42.3368 51.0886 41.8667 51.5587 41.2889 51.5587H3.14382C2.56599 51.5587 2.09588 51.0886 2.09588 50.5108V3.14382C2.09588 2.56599 2.56599 2.09588 3.14382 2.09588H41.2889C41.8667 2.09588 42.3368 2.56599 42.3368 3.14382V14.5402C42.3368 15.119 42.8061 15.5881 43.3848 15.5881Z" fill="#1C3D76"/>
<path d="M22.2163 5.65887C16.9002 5.65887 12.5752 9.98383 12.5752 15.2999C12.5752 18.0578 13.7395 20.5485 15.6019 22.3074C15.6368 22.3447 15.6739 22.38 15.7144 22.4122C17.43 23.9819 19.7131 24.9409 22.2161 24.9409C24.7192 24.9409 27.0023 23.9818 28.7179 22.4122C28.7584 22.38 28.7955 22.3446 28.8304 22.3074C30.693 20.5485 31.8573 18.0578 31.8573 15.2999C31.8573 9.98383 27.5324 5.65887 22.2163 5.65887ZM22.2163 22.8451C20.5051 22.8451 18.9258 22.2717 17.6587 21.308C18.5797 19.6748 20.2984 18.6533 22.2163 18.6533C24.1341 18.6533 25.8528 19.6748 26.7739 21.308C25.5066 22.2717 23.9274 22.8451 22.2163 22.8451ZM20.5395 14.8808V14.1996C20.5395 13.2751 21.2918 12.5229 22.2163 12.5229C23.1407 12.5229 23.893 13.2751 23.893 14.1996V14.8808C23.893 15.8053 23.1407 16.5575 22.2163 16.5575C21.2918 16.5575 20.5395 15.8053 20.5395 14.8808ZM28.288 19.7729C27.5152 18.6266 26.4441 17.7351 25.2005 17.1848C25.6941 16.5469 25.9888 15.7478 25.9888 14.8808V14.1996C25.9888 12.1193 24.2965 10.427 22.2163 10.427C20.136 10.427 18.4437 12.1193 18.4437 14.1996V14.8808C18.4437 15.7478 18.7385 16.5469 19.232 17.1848C17.9884 17.7351 16.9173 18.6266 16.1445 19.7729C15.2193 18.5203 14.6711 16.9732 14.6711 15.2999C14.6711 11.1395 18.0558 7.75476 22.2163 7.75476C26.3767 7.75476 29.7614 11.1395 29.7614 15.2999C29.7614 16.9732 29.2133 18.5203 28.288 19.7729Z" fill="#1C3D76"/>
<path d="M27.8758 45.8998H22.2169C21.6382 45.8998 21.1689 46.369 21.1689 46.9478C21.1689 47.5266 21.6382 47.9957 22.2169 47.9957H27.8758C28.4544 47.9957 28.9237 47.5266 28.9237 46.9478C28.9237 46.369 28.4544 45.8998 27.8758 45.8998Z" fill="#1C3D76"/>
<path d="M27.875 40.0314H12.9942C12.4156 40.0314 11.9463 40.5005 11.9463 41.0793C11.9463 41.6581 12.4156 42.1272 12.9942 42.1272H27.875C28.4537 42.1272 28.9229 41.6581 28.9229 41.0793C28.9229 40.5005 28.4537 40.0314 27.875 40.0314Z" fill="#1C3D76"/>
<path d="M27.875 34.1629H12.9942C12.4156 34.1629 11.9463 34.6321 11.9463 35.2108C11.9463 35.7896 12.4156 36.2588 12.9942 36.2588H27.875C28.4537 36.2588 28.9229 35.7896 28.9229 35.2108C28.9229 34.6321 28.4537 34.1629 27.875 34.1629Z" fill="#1C3D76"/>
<path d="M9.2595 28.6015C9.06469 28.4065 8.79432 28.2944 8.51767 28.2944C8.24195 28.2944 7.97159 28.4065 7.77677 28.6015C7.58186 28.7964 7.46973 29.0668 7.46973 29.3424C7.46973 29.618 7.58175 29.8883 7.77677 30.0833C7.97274 30.2782 8.24195 30.3903 8.51767 30.3903C8.79432 30.3903 9.06364 30.2782 9.2595 30.0833C9.45442 29.8883 9.56666 29.618 9.56666 29.3424C9.56666 29.0668 9.45453 28.7964 9.2595 28.6015Z" fill="#1C3D76"/>
<path d="M9.2595 34.4699C9.06364 34.275 8.79432 34.1629 8.51767 34.1629C8.24195 34.1629 7.97274 34.275 7.77677 34.4699C7.58186 34.6649 7.46973 34.9352 7.46973 35.2108C7.46973 35.4864 7.58175 35.7568 7.77677 35.9517C7.97274 36.1466 8.24195 36.2588 8.51767 36.2588C8.79432 36.2588 9.06364 36.1466 9.2595 35.9517C9.45442 35.7568 9.56666 35.4864 9.56666 35.2108C9.56666 34.9352 9.45453 34.6649 9.2595 34.4699Z" fill="#1C3D76"/>
<path d="M9.2595 40.3384C9.06364 40.1435 8.79432 40.0314 8.51767 40.0314C8.24195 40.0314 7.97274 40.1435 7.77677 40.3384C7.58186 40.5333 7.46973 40.8037 7.46973 41.0793C7.46973 41.3549 7.58175 41.6253 7.77677 41.8202C7.97159 42.0151 8.24195 42.1272 8.51767 42.1272C8.79432 42.1272 9.06469 42.0151 9.2595 41.8202C9.45442 41.6253 9.56666 41.3549 9.56666 41.0793C9.56666 40.8037 9.45453 40.5333 9.2595 40.3384Z" fill="#1C3D76"/>
<path d="M27.875 28.2944H12.9942C12.4156 28.2944 11.9463 28.7636 11.9463 29.3424C11.9463 29.9211 12.4156 30.3903 12.9942 30.3903H27.875C28.4537 30.3903 28.9229 29.9211 28.9229 29.3424C28.9229 28.7636 28.4537 28.2944 27.875 28.2944Z" fill="#1C3D76"/>
<path d="M51.4531 13.6568C50.435 13.069 49.249 12.9129 48.1132 13.2171C46.9776 13.5214 46.0284 14.2497 45.4407 15.2678L32.2532 38.109C32.181 38.2343 32.1353 38.3731 32.1193 38.5168L31.191 46.8316C31.1449 47.2453 31.348 47.6472 31.7085 47.8554C31.8713 47.9493 32.052 47.9958 32.2324 47.9958C32.4516 47.9958 32.67 47.9272 32.8539 47.7917L39.5905 42.8303C39.7069 42.7446 39.8044 42.6357 39.8766 42.5105L53.064 19.6692C54.2775 17.5675 53.5548 14.8703 51.4531 13.6568ZM33.5397 44.6836L34.0245 40.3418L37.0574 42.0929L33.5397 44.6836ZM38.5855 40.5549L34.5923 38.2495L45.175 19.9199L49.1682 22.2254L38.5855 40.5549ZM51.249 18.6212L50.216 20.4104L46.2228 18.1049L47.2558 16.3157C47.5637 15.7824 48.0608 15.401 48.6556 15.2416C49.2506 15.0821 49.8719 15.164 50.405 15.4719C50.9383 15.7798 51.3198 16.277 51.4792 16.8718C51.6386 17.4666 51.5568 18.0879 51.249 18.6212Z" fill="#1C3D76"/>
</svg>
