<svg width="54" height="54" viewBox="0 0 54 54" fill="none" xmlns="http://www.w3.org/2000/svg">
<path d="M12.1565 43.1752C10.4229 43.1752 9.0127 44.5854 9.0127 46.319C9.0127 48.0526 10.4229 49.4628 12.1565 49.4628C13.8901 49.4628 15.3003 48.0526 15.3003 46.319C15.3003 44.5854 13.8901 43.1752 12.1565 43.1752ZM12.1565 47.3669C11.5785 47.3669 11.1086 46.897 11.1086 46.319C11.1086 45.741 11.5785 45.2711 12.1565 45.2711C12.7345 45.2711 13.2045 45.741 13.2045 46.319C13.2045 46.897 12.7345 47.3669 12.1565 47.3669Z" fill="#1C3D76"/>
<path d="M50.5108 43.1752H48.8341V20.5396C48.8341 19.9608 48.3649 19.4917 47.7861 19.4917H42.5464V5.23971C42.5464 4.66088 42.0773 4.19177 41.4985 4.19177C37.0832 4.19177 24.6377 4.19177 20.5396 4.19177C19.9608 4.19177 19.4917 4.66088 19.4917 5.23971V43.1752H18.7848C18.0598 41.6413 16.8342 40.4157 15.2999 39.6904V3.14382C15.2999 1.41022 13.8897 0 12.1561 0H3.14382C1.41022 0 0 1.41022 0 3.14382C0 4.87743 1.41022 6.28765 3.14382 6.28765H9.01229V39.6904C6.47759 40.8939 4.82053 43.4695 4.82053 46.319C4.82053 50.3638 8.11131 53.6546 12.1561 53.6546C15.0056 53.6546 17.5813 51.9975 18.7848 49.4628H50.5108C52.2444 49.4628 53.6546 48.0526 53.6546 46.319C53.6546 44.5854 52.2444 43.1752 50.5108 43.1752ZM46.7382 43.1752H21.5876V21.5876H28.9232V32.6958C28.9232 33.0928 29.1475 33.4555 29.5024 33.6332C29.8573 33.8108 30.2822 33.7724 30.5999 33.5341L34.1629 30.8619L37.7259 33.5341C38.044 33.7728 38.4689 33.8104 38.8234 33.6332C39.1783 33.4555 39.4026 33.0928 39.4026 32.6958V21.5876H46.7382V43.1752ZM31.0191 21.5876H37.3067V30.5999L34.7917 28.7136C34.6054 28.574 34.3839 28.504 34.1629 28.504C33.9418 28.504 33.7204 28.574 33.5341 28.7136L31.0191 30.5999V21.5876ZM28.9232 6.28765H33.1149V12.2937L31.6003 11.2842C31.4243 11.1667 31.2217 11.1082 31.0191 11.1082C30.8164 11.1082 30.6138 11.1667 30.4378 11.2842L28.9232 12.2937V6.28765ZM26.8273 6.28765V14.252C26.8273 14.6384 27.0402 14.9933 27.3807 15.1759C27.7217 15.3585 28.1352 15.338 28.4565 15.1239L31.0191 13.4157L33.5816 15.1239C33.9034 15.3384 34.3172 15.3581 34.6574 15.1759C34.998 14.9937 35.2108 14.6384 35.2108 14.252V6.28765H40.4505V19.4917C34.6652 19.4917 27.3001 19.4917 21.5876 19.4917V6.28765H26.8273ZM3.14382 4.19177C2.56582 4.19177 2.09588 3.72183 2.09588 3.14382C2.09588 2.56582 2.56582 2.09588 3.14382 2.09588H12.1561C12.7341 2.09588 13.2041 2.56582 13.2041 3.14382V39.0591C12.8586 39.0096 12.509 38.9834 12.1561 38.9834C11.8033 38.9834 11.4537 39.0096 11.1082 39.0591V5.23971C11.1082 4.66088 10.6391 4.19177 10.0602 4.19177H3.14382ZM12.1561 51.5587C9.26691 51.5587 6.91641 49.2082 6.91641 46.319C6.91641 43.4609 9.22843 41.0793 12.1561 41.0793C15.083 41.0793 17.3958 43.4634 17.3958 46.319C17.3958 49.2467 15.0142 51.5587 12.1561 51.5587ZM50.5108 47.3669H19.416C19.4655 47.0215 19.4917 46.6719 19.4917 46.319C19.4917 45.9661 19.4651 45.6166 19.416 45.2711H50.5108C51.0888 45.2711 51.5587 45.741 51.5587 46.319C51.5587 46.897 51.0888 47.3669 50.5108 47.3669Z" fill="#1C3D76"/>
<path d="M43.5938 41.0793C44.1727 41.0793 44.6418 40.6102 44.6418 40.0314V37.9355C44.6418 37.3567 44.1727 36.8875 43.5938 36.8875C43.015 36.8875 42.5459 37.3567 42.5459 37.9355V40.0314C42.5459 40.6102 43.015 41.0793 43.5938 41.0793Z" fill="#1C3D76"/>
<path d="M43.5938 32.6958C44.1723 32.6958 44.6418 33.1653 44.6418 33.7437C44.6418 34.3221 44.1723 34.7917 43.5938 34.7917C43.0154 34.7917 42.5459 34.3221 42.5459 33.7437C42.5459 33.1653 43.0154 32.6958 43.5938 32.6958Z" fill="#1C3D76"/>
<path d="M39.4024 36.8875C38.8236 36.8875 38.3545 37.3567 38.3545 37.9355V40.0314C38.3545 40.6102 38.8236 41.0793 39.4024 41.0793C39.9813 41.0793 40.4504 40.6102 40.4504 40.0314V37.9355C40.4504 37.3567 39.9813 36.8875 39.4024 36.8875Z" fill="#1C3D76"/>
</svg>
