<svg width="38" height="54" viewBox="0 0 38 54" fill="none" xmlns="http://www.w3.org/2000/svg">
<path d="M11.5577 12.5753C12.1361 12.5753 12.6056 12.1058 12.6056 11.5274C12.6056 10.9489 12.1361 10.4794 11.5577 10.4794C10.9793 10.4794 10.5098 10.9489 10.5098 11.5274C10.5098 12.1058 10.9793 12.5753 11.5577 12.5753Z" fill="#1C3D76"/>
<path d="M37.7869 18.8932C37.7869 16.9619 36.775 15.1992 35.1793 14.209C35.4278 13.5741 35.5567 12.895 35.5567 12.2011C35.5567 9.49738 33.6119 7.23571 31.0101 6.77641C30.5532 4.19668 28.2944 2.23097 25.5857 2.23097C24.8915 2.23097 24.2124 2.35951 23.5779 2.60798C22.5876 1.01192 20.825 0 18.8932 0C16.9619 0 15.1988 1.01192 14.209 2.60798C13.5741 2.35951 12.8954 2.23097 12.2011 2.23097C10.7271 2.23097 9.34223 2.8057 8.30248 3.84914C7.49646 4.65802 6.9729 5.6728 6.78215 6.77478C5.67608 6.96758 4.65761 7.4936 3.84668 8.30289C2.80406 9.34387 2.23015 10.7283 2.23015 12.2011C2.23015 12.895 2.35869 13.5741 2.60757 14.209C1.01192 15.1988 0 16.9619 0 18.8932C0 20.8254 1.01192 22.5885 2.60757 23.5783C2.35869 24.2136 2.23015 24.8919 2.23015 25.5853C2.23015 28.2944 4.19463 30.5532 6.77396 31.0109C7.05518 32.618 8.03517 34.0155 9.46176 34.8293V52.6067C9.46176 53.0307 9.7172 53.4127 10.1085 53.5748C10.5003 53.7369 10.951 53.6472 11.2506 53.3476L18.8932 45.7054L26.5358 53.3476C26.8359 53.6476 27.2862 53.7369 27.6779 53.5748C28.0693 53.4127 28.3247 53.0307 28.3247 52.6067V34.8281C29.7493 34.0147 30.7223 32.6188 30.9949 31.015C32.1018 30.8238 33.1215 30.2994 33.9341 29.4905C34.9804 28.4487 35.5567 27.0619 35.5567 25.5853C35.5567 24.8919 35.4278 24.2132 35.1793 23.5783C36.775 22.5885 37.7869 20.8254 37.7869 18.8932ZM11.5576 35.5182C11.7701 35.5428 11.9846 35.5567 12.2011 35.5567C12.6969 35.5567 13.184 35.49 13.6535 35.3619V47.981L11.5576 50.0769V35.5182ZM18.1523 43.4822L15.7494 45.8847V36.7979C16.6492 37.4262 17.7385 37.7877 18.8932 37.7877C20.0415 37.7877 21.1328 37.4271 22.0371 36.7991V45.8851L19.6346 43.4822C19.2252 43.0728 18.5617 43.0728 18.1523 43.4822ZM24.1329 47.9806V35.3619C24.6029 35.49 25.0904 35.5567 25.5857 35.5567C25.8019 35.5567 26.0164 35.5428 26.2288 35.5178V50.0769L24.1329 47.9806ZM33.408 22.1165C33.1023 22.2237 32.8632 22.4665 32.7609 22.7743C32.6585 23.0817 32.7044 23.4194 32.8849 23.6888C33.2619 24.2504 33.4608 24.9062 33.4608 25.5857C33.4608 26.5006 33.1039 27.3599 32.4555 28.005C31.8103 28.6469 30.9552 28.9997 30.0456 28.9997C30.0387 28.9997 30.0321 28.9997 30.0247 28.9997C29.746 28.9997 29.4787 29.1107 29.2818 29.3084C29.0841 29.5069 28.9743 29.7767 28.9768 30.0571C28.9891 31.4427 28.1659 32.679 26.8793 33.2071C26.8789 33.2071 26.8789 33.2071 26.8789 33.2071C26.4687 33.3753 26.0336 33.4608 25.5857 33.4608C24.9058 33.4608 24.2492 33.2619 23.6867 32.8853C23.5377 32.7858 23.3675 32.7289 23.1931 32.7142C23.1923 32.7138 23.1914 32.7138 23.1906 32.7138C23.1632 32.7113 23.1358 32.7097 23.1083 32.7097C23.1006 32.7093 23.0932 32.7085 23.0854 32.7085C22.5754 32.7085 22.1509 33.0728 22.0571 33.5554C21.5397 34.8375 20.2842 35.6918 18.8936 35.6918C17.4531 35.6918 16.1768 34.7896 15.7052 33.4445C15.6675 33.3188 15.607 33.2038 15.528 33.1031C15.5275 33.1027 15.5271 33.1018 15.5263 33.101C15.5054 33.0744 15.4837 33.049 15.4604 33.0249C15.4571 33.0216 15.4543 33.0179 15.4514 33.0147C15.4313 32.9942 15.4101 32.9749 15.3884 32.9565C15.3818 32.9508 15.3757 32.9442 15.3687 32.9385C15.3622 32.9332 15.3548 32.9283 15.3478 32.923C15.2385 32.8366 15.1125 32.7711 14.9749 32.7338C14.6802 32.6536 14.3654 32.706 14.1124 32.8767C13.5479 33.259 12.8868 33.4608 12.2011 33.4608C11.7525 33.4608 11.3169 33.3757 10.9072 33.2079C9.61773 32.6794 8.78551 31.4395 8.78715 30.0489C8.78756 29.7709 8.67704 29.5041 8.48055 29.3072C8.28406 29.1103 8.01716 28.9997 7.73921 28.9997C5.85701 28.9997 4.32603 27.4683 4.32603 25.5857C4.32603 24.9066 4.52539 24.2504 4.90199 23.6888C5.08252 23.4194 5.12836 23.0817 5.02602 22.7743C4.92369 22.4665 4.68463 22.2237 4.37884 22.1165C3.01365 21.6371 2.09629 20.3419 2.09629 18.8932C2.09629 17.4454 3.01324 16.1506 4.37884 15.6716C4.68463 15.5644 4.92369 15.3212 5.02602 15.0138C5.12836 14.706 5.08252 14.3683 4.90199 14.0989C4.52539 13.5373 4.32603 12.8811 4.32603 12.2011C4.32603 11.2887 4.68176 10.4311 5.32772 9.78638C5.97286 9.14247 6.82963 8.78797 7.74085 8.78797H7.74863C8.02699 8.78797 8.29388 8.67745 8.49037 8.48055C8.68727 8.28324 8.79779 8.01552 8.79657 7.73634C8.7937 6.82758 9.14533 5.97245 9.78679 5.32854C10.4307 4.68258 11.2883 4.32685 12.2011 4.32685C12.8823 4.32685 13.5385 4.52539 14.0993 4.90158C14.3683 5.08211 14.706 5.12795 15.0138 5.02562C15.3216 4.92328 15.5644 4.68422 15.6716 4.37843C16.151 3.01324 17.4454 2.09588 18.8932 2.09588C20.3411 2.09588 21.6359 3.01324 22.1152 4.37843C22.2225 4.68422 22.4657 4.92328 22.7731 5.02562C23.0809 5.12795 23.4182 5.08211 23.6876 4.90158C24.2484 4.5258 24.9046 4.32685 25.5857 4.32685C27.4675 4.32685 28.9985 5.85824 28.9985 7.74003C28.9985 8.31885 29.468 8.78797 30.0464 8.78797C31.9426 8.78797 33.4608 10.3198 33.4608 12.2011C33.4608 12.8807 33.2615 13.5373 32.8849 14.0989C32.7044 14.3683 32.6585 14.706 32.7609 15.0138C32.8632 15.3212 33.1023 15.564 33.408 15.6716C34.7736 16.1506 35.6906 17.4454 35.6906 18.8932C35.691 20.3419 34.7736 21.6371 33.408 22.1165Z" fill="#1C3D76"/>
<path d="M18.8936 7.33559C17.415 7.33559 15.9728 7.61272 14.6072 8.15879C14.0698 8.3737 13.8086 8.98364 14.0235 9.52071C14.2384 10.0582 14.8483 10.3194 15.3854 10.1049C16.5025 9.65784 17.6827 9.43147 18.8936 9.43147C24.0944 9.43147 28.325 13.6625 28.325 18.8629C28.325 24.0633 24.0944 28.2944 18.8936 28.2944C13.6932 28.2944 9.46209 24.0633 9.46209 18.8629C9.46209 17.6521 9.68887 16.4719 10.1355 15.3548C10.3504 14.8173 10.0892 14.2074 9.55174 13.9925C9.01426 13.778 8.40474 14.0387 8.18942 14.5762C7.64334 15.9422 7.36621 17.3844 7.36621 18.8629C7.36621 25.219 12.5376 30.3903 18.8936 30.3903C25.25 30.3903 30.4209 25.219 30.4209 18.8629C30.4209 12.5069 25.25 7.33559 18.8936 7.33559Z" fill="#1C3D76"/>
<path d="M24.1324 18.8629C24.1324 19.4418 24.6019 19.9109 25.1803 19.9109C25.7591 19.9109 26.2283 19.4418 26.2283 18.8629C26.2283 14.8181 22.9375 11.5274 18.8927 11.5274C18.3143 11.5274 17.8447 11.9965 17.8447 12.5753C17.8447 13.1541 18.3143 13.6232 18.8927 13.6232C21.7819 13.6232 24.1324 15.9737 24.1324 18.8629Z" fill="#1C3D76"/>
</svg>
