<svg width="54" height="54" viewBox="0 0 54 54" fill="none" xmlns="http://www.w3.org/2000/svg">
<path d="M19.0432 38.4399C18.9674 38.4184 18.8899 38.4062 18.8118 38.402C19.9597 37.1955 20.6667 35.5657 20.6667 33.7728V28.2595C20.6667 28.2091 20.6618 28.16 20.655 28.1115C20.6619 28.012 20.6667 27.9118 20.6667 27.8106V24.3224C20.6667 23.7436 20.1975 23.2745 19.6187 23.2745H12.5899C9.62995 23.2745 7.22199 25.6825 7.22199 28.6423V33.7728C7.22199 35.5657 7.92883 37.1955 9.07685 38.402C8.99888 38.4062 8.92133 38.4184 8.84567 38.4399C3.89342 38.8884 0 43.0624 0 48.1294V52.6066C0 53.1854 0.469163 53.6546 1.04794 53.6546H26.8406C27.4194 53.6546 27.8885 53.1854 27.8885 52.6066V48.1294C27.8885 43.0625 23.9953 38.8885 19.0432 38.4399ZM9.31787 29.9712V28.6422C9.31787 26.8381 10.7857 25.3702 12.5899 25.3702H18.5708V27.8105C18.5708 29.039 17.5714 30.0384 16.3429 30.0384H9.31787V29.9712ZM9.31787 32.1343H16.3429C17.1573 32.1343 17.9197 31.9077 18.5708 31.5145V33.7727C18.5708 36.3237 16.4953 38.3992 13.9443 38.3992C11.3933 38.3992 9.31787 36.3237 9.31787 33.7727V32.1343ZM16.2252 40.4952L13.9443 42.7761L11.6635 40.4952H16.2252ZM25.7928 51.5587H2.09588V49.4628H6.44484C7.02362 49.4628 7.49278 48.9937 7.49278 48.4149C7.49278 47.8361 7.02362 47.3669 6.44484 47.3669H2.13413C2.48614 43.8337 5.25763 41.0042 8.76289 40.5586L13.2033 44.999C13.3998 45.1955 13.6664 45.306 13.9443 45.306C14.2222 45.306 14.4888 45.1955 14.6853 44.999L19.1258 40.5586C22.8799 41.0357 25.7928 44.2477 25.7928 48.1294V51.5587Z" fill="#1C3D76"/>
<path d="M44.8091 15.1656C44.7334 15.144 44.6557 15.1319 44.5775 15.1277C45.7254 13.9212 46.4323 12.2913 46.4323 10.4985V4.98506C46.4323 4.93465 46.4275 4.8855 46.4207 4.83709C46.4276 4.73753 46.4323 4.63735 46.4323 4.53612V1.04794C46.4323 0.469163 45.9631 0 45.3843 0H38.3555C35.3956 0 32.9876 2.40806 32.9876 5.36787V10.4984C32.9876 12.2912 33.6945 13.9211 34.8424 15.1276C34.7643 15.1317 34.6865 15.1439 34.6108 15.1655C29.6587 15.6141 25.7656 19.7882 25.7656 24.855V29.3321C25.7656 29.9109 26.2348 30.38 26.8136 30.38H35.2453C35.8241 30.38 36.2932 29.9109 36.2932 29.3321C36.2932 28.7533 35.8241 28.2841 35.2453 28.2841H27.8615V24.8551C27.8615 20.9734 30.7743 17.7613 34.5284 17.2842L38.9688 21.7247C39.1735 21.9293 39.4417 22.0316 39.7098 22.0316C39.978 22.0316 40.2463 21.9293 40.4508 21.7247L44.8913 17.2842C48.6456 17.7615 51.5584 20.9734 51.5584 24.8551V28.2843H43.8385C43.2597 28.2843 42.7906 28.7534 42.7906 29.3322C42.7906 29.911 43.2597 30.3801 43.8385 30.3801H52.6063C53.1851 30.3801 53.6543 29.911 53.6543 29.3322V24.8551C53.6543 19.7883 49.7611 15.6142 44.8091 15.1656ZM39.7101 19.5017L37.4292 17.2208H41.9909L39.7101 19.5017ZM44.3365 10.4984C44.3365 13.0494 42.2611 15.1248 39.7101 15.1248C37.1591 15.1248 35.0836 13.0495 35.0836 10.4985V8.85992H42.1086C42.923 8.85992 43.6854 8.63326 44.3365 8.24017V10.4984ZM44.3365 4.53612C44.3365 5.76462 43.3371 6.76404 42.1086 6.76404H35.0836V6.69687V5.36787C35.0836 3.56373 36.5515 2.09588 38.3556 2.09588H44.3365V4.53612Z" fill="#1C3D76"/>
<path d="M40.4519 28.591C40.257 28.396 39.9866 28.2839 39.711 28.2839C39.4344 28.2839 39.165 28.396 38.9701 28.591C38.7742 28.7859 38.6631 29.0563 38.6631 29.3319C38.6631 29.6085 38.7742 29.8778 38.9701 30.0728C39.165 30.2687 39.4344 30.3798 39.711 30.3798C39.9866 30.3798 40.257 30.2687 40.4519 30.0728C40.6468 29.8778 40.759 29.6085 40.759 29.3319C40.759 29.0563 40.6468 28.7859 40.4519 28.591Z" fill="#1C3D76"/>
<path d="M28.0225 14.6637L23.6399 10.2811V5.23971C23.6399 2.35053 21.2893 0 18.4002 0H5.23971C2.35053 0 0 2.35053 0 5.23971V14.4616C0 17.3508 2.35053 19.7013 5.23971 19.7013H18.4001C20.5666 19.7013 22.4558 18.4011 23.2485 16.4527H27.2814C27.7052 16.4527 28.0873 16.1973 28.2496 15.8058C28.4118 15.4143 28.3221 14.9634 28.0225 14.6637ZM22.484 14.3568C21.9958 14.3568 21.5722 14.6939 21.4627 15.1698C21.1328 16.6038 19.8735 17.6054 18.4001 17.6054H5.23971C3.5062 17.6054 2.09588 16.1951 2.09588 14.4616V5.23971C2.09588 3.5062 3.5062 2.09588 5.23971 2.09588H18.4001C20.1336 2.09588 21.5439 3.5062 21.5439 5.23971V10.7152C21.5439 10.9931 21.6543 11.2597 21.8508 11.4562L24.7514 14.3568H22.484Z" fill="#1C3D76"/>
<path d="M48.4149 33.9533H35.2545C33.088 33.9533 31.1988 35.2535 30.4061 37.2019H26.3732C25.9494 37.2019 25.5672 37.4573 25.405 37.8488C25.2428 38.2403 25.3325 38.6911 25.6321 38.9909L30.0147 43.3735V48.4149C30.0147 51.3041 32.3652 53.6546 35.2544 53.6546H48.4149C51.304 53.6546 53.6546 51.3041 53.6546 48.4149V39.193C53.6546 36.3038 51.304 33.9533 48.4149 33.9533ZM51.5587 48.4149C51.5587 50.1484 50.1484 51.5587 48.4149 51.5587H35.2545C33.521 51.5587 32.1107 50.1484 32.1107 48.4149V42.9394C32.1107 42.6615 32.0002 42.3949 31.8037 42.1984L28.9031 39.2978H31.1706C31.6588 39.2978 32.0824 38.9607 32.1919 38.4848C32.5218 37.0508 33.7811 36.0492 35.2545 36.0492H48.4149C50.1484 36.0492 51.5587 37.4595 51.5587 39.193V48.4149Z" fill="#1C3D76"/>
<path d="M46.5444 41.0156C46.1353 40.6064 45.4717 40.6064 45.0625 41.0156L42.2768 43.8013L40.9814 42.506C40.5722 42.0968 39.9086 42.0968 39.4993 42.506C39.0901 42.9152 39.0901 43.5788 39.4993 43.9881L41.5357 46.0244C41.7403 46.2291 42.0085 46.3314 42.2767 46.3314C42.5448 46.3314 42.8131 46.2291 43.0177 46.0244L46.5444 42.4977C46.9536 42.0885 46.9536 41.4249 46.5444 41.0156Z" fill="#1C3D76"/>
<path d="M16.5841 6.9445C16.4602 5.14759 15.0118 3.69913 13.2149 3.57526C12.196 3.50515 11.2247 3.84888 10.4807 4.54345C9.74702 5.22828 9.32617 6.19658 9.32617 7.19988C9.32628 7.77876 9.79544 8.24793 10.3742 8.24793C10.953 8.24793 11.4222 7.77876 11.4222 7.19998C11.4222 6.76918 11.5957 6.36991 11.9109 6.07565C12.2256 5.78181 12.638 5.63593 13.0709 5.66632C13.8295 5.71862 14.441 6.33009 14.4933 7.08869C14.5462 7.85568 14.0434 8.53349 13.2978 8.70032C12.4816 8.88287 11.9117 9.59243 11.9117 10.4258V10.9848C11.9117 11.5636 12.3808 12.0328 12.9596 12.0328C13.5384 12.0328 14.0075 11.5636 14.0075 10.9848V10.6799C15.6312 10.1955 16.7027 8.6648 16.5841 6.9445Z" fill="#1C3D76"/>
<path d="M13.7009 14.2541C13.506 14.0592 13.2357 13.947 12.9601 13.947C12.6834 13.947 12.4141 14.0592 12.2192 14.2541C12.0232 14.449 11.9121 14.7194 11.9121 14.995C11.9121 15.2706 12.0232 15.541 12.2192 15.7359C12.4141 15.9308 12.6834 16.0429 12.9601 16.0429C13.2357 16.0429 13.506 15.9308 13.7009 15.7359C13.8959 15.541 14.008 15.2706 14.008 14.995C14.008 14.7194 13.8959 14.449 13.7009 14.2541Z" fill="#1C3D76"/>
<path d="M11.3777 47.674C11.1828 47.4791 10.9124 47.367 10.6368 47.367C10.3612 47.367 10.0908 47.4791 9.89591 47.674C9.701 47.8689 9.58887 48.1393 9.58887 48.4149C9.58887 48.6905 9.701 48.9609 9.89591 49.1558C10.0908 49.3507 10.3612 49.4628 10.6368 49.4628C10.9124 49.4628 11.1828 49.3507 11.3777 49.1558C11.5726 48.9609 11.6847 48.6905 11.6847 48.4149C11.6847 48.1393 11.5726 47.8689 11.3777 47.674Z" fill="#1C3D76"/>
</svg>
