<svg width="43" height="54" viewBox="0 0 43 54" fill="none" xmlns="http://www.w3.org/2000/svg">
<path d="M41.2889 27.0476C41.8677 27.0476 42.3368 26.5784 42.3368 25.9996V9.43147C42.3368 6.5423 39.9863 4.19177 37.0971 4.19177H29.9943C29.4711 3.52276 28.6574 3.09143 27.7442 3.09143H26.0397C25.2056 1.2372 23.3421 0 21.2603 0H21.0764C18.9947 0 17.1312 1.2372 16.2972 3.09143H14.5926C13.6794 3.09143 12.8657 3.52276 12.3425 4.19177H5.23971C2.35053 4.19177 0 6.5423 0 9.43147V48.4149C0 51.3041 2.35053 53.6546 5.23971 53.6546H37.0971C39.9863 53.6546 42.3368 51.3041 42.3368 48.4149V34.785C42.3368 34.2063 41.8677 33.7371 41.2889 33.7371C40.7101 33.7371 40.2409 34.2063 40.2409 34.785V48.4149C40.2409 50.1484 38.8306 51.5587 37.0971 51.5587H5.23971C3.5062 51.5587 2.09588 50.1484 2.09588 48.4149V9.43147C2.09588 7.69797 3.5062 6.28765 5.23971 6.28765H11.7369V8.38353H6.28765C5.13198 8.38353 4.19176 9.32374 4.19176 10.4794V47.3669C4.19176 48.5226 5.13198 49.4628 6.28765 49.4628H36.0492C37.2048 49.4628 38.1451 48.5226 38.1451 47.3669V10.4794C38.1451 9.32374 37.2048 8.38353 36.0492 8.38353H30.5999V6.28765H37.0971C38.8306 6.28765 40.2409 7.69797 40.2409 9.43147V25.9996C40.2409 26.5784 40.7101 27.0476 41.2889 27.0476ZM13.8328 5.94707C13.8328 5.5281 14.1736 5.18731 14.5926 5.18731H17.0317C17.5047 5.18731 17.9191 4.87041 18.043 4.41393C18.4135 3.04909 19.6608 2.09588 21.0765 2.09588H21.2604C22.676 2.09588 23.9235 3.04909 24.2939 4.41393C24.4179 4.87041 24.8322 5.18731 25.3053 5.18731H27.7443C28.1633 5.18731 28.5041 5.5281 28.5041 5.94707V8.38353H13.8328V5.94707ZM36.0492 10.4794L36.0505 47.3669C36.0505 47.3669 36.0501 47.3669 36.0492 47.3669H6.28765V10.4794H12.7849H29.5519H36.0492Z" fill="#1C3D76"/>
<path d="M42.03 29.7437C41.8351 29.5488 41.5648 29.4367 41.2892 29.4367C41.0135 29.4367 40.7432 29.5488 40.5483 29.7437C40.3533 29.9386 40.2412 30.209 40.2412 30.4846C40.2412 30.7613 40.3533 31.0306 40.5483 31.2255C40.7432 31.4215 41.0135 31.5325 41.2892 31.5325C41.5648 31.5325 41.8351 31.4215 42.03 31.2255C42.225 31.0306 42.3371 30.7613 42.3371 30.4846C42.3371 30.209 42.225 29.9397 42.03 29.7437Z" fill="#1C3D76"/>
<path d="M22.6433 18.7508C22.4484 18.5559 22.178 18.4438 21.9024 18.4438C21.6268 18.4438 21.3565 18.5559 21.1615 18.7508C20.9666 18.9457 20.8545 19.2161 20.8545 19.4917C20.8545 19.7673 20.9666 20.0377 21.1615 20.2326C21.3565 20.4275 21.6268 20.5396 21.9024 20.5396C22.178 20.5396 22.4484 20.4275 22.6433 20.2326C22.8382 20.0377 22.9504 19.7673 22.9504 19.4917C22.9504 19.2161 22.8382 18.9457 22.6433 18.7508Z" fill="#1C3D76"/>
<path d="M32.7464 18.4438H26.5128C25.934 18.4438 25.4648 18.9129 25.4648 19.4917C25.4648 20.0705 25.934 20.5396 26.5128 20.5396H32.7464C33.3251 20.5396 33.7943 20.0705 33.7943 19.4917C33.7943 18.9129 33.3251 18.4438 32.7464 18.4438Z" fill="#1C3D76"/>
<path d="M32.7469 29.7615H21.9024C21.3237 29.7615 20.8545 30.2307 20.8545 30.8095C20.8545 31.3883 21.3237 31.8574 21.9024 31.8574H32.7469C33.3257 31.8574 33.7949 31.3883 33.7949 30.8095C33.7949 30.2307 33.3257 29.7615 32.7469 29.7615Z" fill="#1C3D76"/>
<path d="M32.7469 41.0793H21.9024C21.3237 41.0793 20.8545 41.5485 20.8545 42.1272C20.8545 42.706 21.3237 43.1752 21.9024 43.1752H32.7469C33.3257 43.1752 33.7949 42.706 33.7949 42.1272C33.7949 41.5485 33.3257 41.0793 32.7469 41.0793Z" fill="#1C3D76"/>
<path d="M15.2997 18.4438H11.3176V14.4616C11.3176 13.8828 10.8484 13.4137 10.2696 13.4137C9.69084 13.4137 9.22168 13.8828 9.22168 14.4616V19.4917C9.22168 20.0705 9.69084 20.5397 10.2696 20.5397H15.2997C15.8785 20.5397 16.3477 20.0705 16.3477 19.4917C16.3477 18.9129 15.8785 18.4438 15.2997 18.4438Z" fill="#1C3D76"/>
<path d="M17.5034 13.3837C17.0943 12.9745 16.4307 12.9745 16.0215 13.3837L14.5766 14.8286L14.4541 14.7061C14.0449 14.2969 13.3813 14.2969 12.972 14.7061C12.5627 15.1153 12.5628 15.7789 12.972 16.1882L13.8355 17.0517C14.0402 17.2564 14.3083 17.3586 14.5765 17.3586C14.8447 17.3586 15.1129 17.2564 15.3175 17.0517L17.5034 14.8658C17.9126 14.4566 17.9126 13.793 17.5034 13.3837Z" fill="#1C3D76"/>
<path d="M15.2997 29.731H11.3176V25.7489C11.3176 25.1701 10.8484 24.7009 10.2696 24.7009C9.69084 24.7009 9.22168 25.1701 9.22168 25.7489V30.779C9.22168 31.3578 9.69084 31.8269 10.2696 31.8269H15.2997C15.8785 31.8269 16.3477 31.3578 16.3477 30.779C16.3477 30.2002 15.8785 29.731 15.2997 29.731Z" fill="#1C3D76"/>
<path d="M17.5034 24.6709C17.0943 24.2617 16.4307 24.2617 16.0215 24.6709L14.5766 26.1158L14.4541 25.9933C14.0449 25.5841 13.3813 25.5841 12.972 25.9933C12.5627 26.4026 12.5628 27.0661 12.972 27.4754L13.8355 28.3389C14.0402 28.5436 14.3083 28.6459 14.5765 28.6459C14.8447 28.6459 15.1129 28.5436 15.3175 28.3389L17.5034 26.153C17.9126 25.7438 17.9126 25.0803 17.5034 24.6709Z" fill="#1C3D76"/>
<path d="M15.2997 41.0793H11.3176V37.0971C11.3176 36.5183 10.8484 36.0492 10.2696 36.0492C9.69084 36.0492 9.22168 36.5183 9.22168 37.0971V42.1272C9.22168 42.706 9.69084 43.1752 10.2696 43.1752H15.2997C15.8785 43.1752 16.3477 42.706 16.3477 42.1272C16.3477 41.5485 15.8785 41.0793 15.2997 41.0793Z" fill="#1C3D76"/>
<path d="M17.5034 36.0192C17.0943 35.61 16.4307 35.61 16.0215 36.0192L14.5766 37.4641L14.4541 37.3416C14.0449 36.9324 13.3813 36.9324 12.972 37.3416C12.5627 37.7508 12.5628 38.4144 12.972 38.8237L13.8355 39.6872C14.0402 39.8919 14.3083 39.9941 14.5765 39.9941C14.8447 39.9941 15.1129 39.8919 15.3175 39.6872L17.5034 37.5013C17.9126 37.0921 17.9126 36.4285 17.5034 36.0192Z" fill="#1C3D76"/>
</svg>
