<svg width="482" height="241" viewBox="0 0 482 241" fill="none" xmlns="http://www.w3.org/2000/svg">
<path d="M267.002 54.3343C268.328 54.3343 269.599 53.8075 270.536 52.8698C271.473 51.9321 272 50.6604 272 49.3343V2.66571C272 1.33963 271.473 0.0678673 270.536 -0.869816C269.599 -1.8075 268.328 -2.33429 267.002 -2.33429H219.595V-44C219.595 -45.3261 219.069 -46.5979 218.131 -47.5355C217.194 -48.4732 215.923 -49 214.597 -49H109.788C108.466 -48.9947 107.199 -48.4656 106.267 -47.5285C105.334 -46.5914 104.81 -45.3226 104.81 -44V-2.33429H57.4026C56.0772 -2.33429 54.806 -1.8075 53.8687 -0.869816C52.9314 0.0678673 52.4049 1.33963 52.4049 2.66571V44.3343H4.99774C3.67226 44.3343 2.40107 44.8611 1.46381 45.7988C0.526548 46.7364 0 48.0082 0 49.3343V96C0 97.3261 0.526548 98.5979 1.46381 99.5355C2.40107 100.473 3.67226 101 4.99774 101H52.4049V137.666H4.99774C3.67226 137.666 2.40107 138.193 1.46381 139.13C0.526548 140.068 0 141.34 0 142.666V189.334C0 190.66 0.526548 191.932 1.46381 192.87C2.40107 193.807 3.67226 194.334 4.99774 194.334H52.4049V236C52.4049 237.326 52.9314 238.598 53.8687 239.536C54.806 240.473 56.0772 241 57.4026 241H266.997C268.322 241 269.593 240.473 270.53 239.536C271.468 238.598 271.994 237.326 271.994 236V189.334C271.994 188.008 271.468 186.736 270.53 185.799C269.593 184.861 268.322 184.334 266.997 184.334H219.589V147.666H266.997C268.322 147.666 269.593 147.139 270.53 146.201C271.468 145.264 271.994 143.992 271.994 142.666V96C271.994 94.6739 271.468 93.4021 270.53 92.4645C269.593 91.5268 268.322 91 266.997 91H219.589V54.3343H267.002ZM262.005 44.3343H167.19V7.66571H262.005V44.3343ZM114.805 -39H209.62V-25.6657H190.268C188.943 -25.6657 187.672 -25.1389 186.734 -24.2012C185.797 -23.2636 185.271 -21.9918 185.271 -20.6657C185.271 -19.3396 185.797 -18.0679 186.734 -17.1302C187.672 -16.1925 188.943 -15.6657 190.268 -15.6657H209.605V-2.33143H114.791L114.805 -39ZM62.409 7.66571H157.223V44.3343H62.409V7.66571ZM10.0098 54.3343H104.824V91H10.0098V54.3343ZM62.409 124.334H85.0787C86.4042 124.334 87.6754 123.807 88.6127 122.87C89.5499 121.932 90.0765 120.66 90.0765 119.334C90.0765 118.008 89.5499 116.736 88.6127 115.799C87.6754 114.861 86.4042 114.334 85.0787 114.334H62.409V101H157.223V137.666H62.409V124.334ZM10.0098 147.666H104.824V184.334H10.0098V147.666ZM62.409 217.666H94.1089C95.4344 217.666 96.7056 217.139 97.6429 216.201C98.5801 215.264 99.1067 213.992 99.1067 212.666C99.1067 211.34 98.5801 210.068 97.6429 209.13C96.7056 208.193 95.4344 207.666 94.1089 207.666H62.409V194.334H157.223V231H62.409V217.666ZM262.007 231H167.193V194.334H262.007V231ZM209.605 161H167.422C166.096 161 164.825 161.527 163.888 162.464C162.95 163.402 162.424 164.674 162.424 166C162.424 167.326 162.95 168.598 163.888 169.536C164.825 170.473 166.096 171 167.422 171H209.605V184.334H114.791V147.666H209.605V161ZM262.005 137.666H167.19V101H262.005V137.666ZM209.605 91H114.791V77.6657H144.098C145.423 77.6657 146.694 77.1389 147.632 76.2013C148.569 75.2636 149.096 73.9918 149.096 72.6657C149.096 71.3396 148.569 70.0679 147.632 69.1302C146.694 68.1925 145.423 67.6657 144.098 67.6657H114.805V54.3343H209.62L209.605 91Z" fill="#1A386B"/>
<path d="M477.002 54.3343C478.328 54.3343 479.599 53.8075 480.536 52.8698C481.473 51.9321 482 50.6604 482 49.3343V2.66571C482 1.33963 481.473 0.0678673 480.536 -0.869816C479.599 -1.8075 478.328 -2.33429 477.002 -2.33429H429.595V-44C429.595 -45.3261 429.069 -46.5979 428.131 -47.5355C427.194 -48.4732 425.923 -49 424.597 -49H319.788C318.466 -48.9947 317.199 -48.4656 316.267 -47.5285C315.334 -46.5914 314.81 -45.3226 314.81 -44V-2.33429H267.403C266.077 -2.33429 264.806 -1.8075 263.869 -0.869816C262.931 0.0678673 262.405 1.33963 262.405 2.66571V44.3343H214.998C213.672 44.3343 212.401 44.8611 211.464 45.7988C210.527 46.7364 210 48.0082 210 49.3343V96C210 97.3261 210.527 98.5979 211.464 99.5355C212.401 100.473 213.672 101 214.998 101H262.405V137.666H214.998C213.672 137.666 212.401 138.193 211.464 139.13C210.527 140.068 210 141.34 210 142.666V189.334C210 190.66 210.527 191.932 211.464 192.87C212.401 193.807 213.672 194.334 214.998 194.334H262.405V236C262.405 237.326 262.931 238.598 263.869 239.536C264.806 240.473 266.077 241 267.403 241H476.997C478.322 241 479.593 240.473 480.53 239.536C481.468 238.598 481.994 237.326 481.994 236V189.334C481.994 188.008 481.468 186.736 480.53 185.799C479.593 184.861 478.322 184.334 476.997 184.334H429.589V147.666H476.997C478.322 147.666 479.593 147.139 480.53 146.201C481.468 145.264 481.994 143.992 481.994 142.666V96C481.994 94.6739 481.468 93.4021 480.53 92.4645C479.593 91.5268 478.322 91 476.997 91H429.589V54.3343H477.002ZM472.005 44.3343H377.19V7.66571H472.005V44.3343ZM324.805 -39H419.62V-25.6657H400.268C398.943 -25.6657 397.672 -25.1389 396.734 -24.2012C395.797 -23.2636 395.271 -21.9918 395.271 -20.6657C395.271 -19.3396 395.797 -18.0679 396.734 -17.1302C397.672 -16.1925 398.943 -15.6657 400.268 -15.6657H419.605V-2.33143H324.791L324.805 -39ZM272.409 7.66571H367.223V44.3343H272.409V7.66571ZM220.01 54.3343H314.824V91H220.01V54.3343ZM272.409 124.334H295.079C296.404 124.334 297.675 123.807 298.613 122.87C299.55 121.932 300.076 120.66 300.076 119.334C300.076 118.008 299.55 116.736 298.613 115.799C297.675 114.861 296.404 114.334 295.079 114.334H272.409V101H367.223V137.666H272.409V124.334ZM220.01 147.666H314.824V184.334H220.01V147.666ZM272.409 217.666H304.109C305.434 217.666 306.706 217.139 307.643 216.201C308.58 215.264 309.107 213.992 309.107 212.666C309.107 211.34 308.58 210.068 307.643 209.13C306.706 208.193 305.434 207.666 304.109 207.666H272.409V194.334H367.223V231H272.409V217.666ZM472.007 231H377.193V194.334H472.007V231ZM419.605 161H377.422C376.096 161 374.825 161.527 373.888 162.464C372.95 163.402 372.424 164.674 372.424 166C372.424 167.326 372.95 168.598 373.888 169.536C374.825 170.473 376.096 171 377.422 171H419.605V184.334H324.791V147.666H419.605V161ZM472.005 137.666H377.19V101H472.005V137.666ZM419.605 91H324.791V77.6657H354.098C355.423 77.6657 356.694 77.1389 357.632 76.2013C358.569 75.2636 359.096 73.9918 359.096 72.6657C359.096 71.3396 358.569 70.0679 357.632 69.1302C356.694 68.1925 355.423 67.6657 354.098 67.6657H324.805V54.3343H419.62L419.605 91Z" fill="#1A386B"/>
</svg>
